<mxfile host="app.diagrams.net" modified="2023-10-21T17:25:33.441Z" agent="Mozilla/5.0 (Windows NT 10.0; Win64; x64) AppleWebKit/537.36 (KHTML, like Gecko) Chrome/118.0.0.0 Safari/537.36" etag="OCJL3f5YeGHN1JgxbyZP" version="21.8.2" type="device" pages="5">
  <diagram id="C0GUv6iW_bNeqAw6ftZd" name="home">
    <mxGraphModel dx="1674" dy="750" grid="1" gridSize="10" guides="1" tooltips="1" connect="1" arrows="1" fold="1" page="1" pageScale="1" pageWidth="850" pageHeight="1100" math="0" shadow="0">
      <root>
        <mxCell id="0" />
        <mxCell id="1" parent="0" />
        <mxCell id="kIR86H_-BO4yGohiQIek-1" value="" style="strokeWidth=1;shadow=0;dashed=0;align=center;html=1;shape=mxgraph.mockup.containers.browserWindow;rSize=0;strokeColor=#666666;strokeColor2=#008cff;strokeColor3=#c4c4c4;mainText=,;recursiveResize=0;" parent="1" vertex="1">
          <mxGeometry width="850" height="800" as="geometry" />
        </mxCell>
        <mxCell id="kIR86H_-BO4yGohiQIek-2" value="Page 1" style="strokeWidth=1;shadow=0;dashed=0;align=center;html=1;shape=mxgraph.mockup.containers.anchor;fontSize=17;fontColor=#666666;align=left;whiteSpace=wrap;" parent="kIR86H_-BO4yGohiQIek-1" vertex="1">
          <mxGeometry x="60" y="12" width="110" height="26" as="geometry" />
        </mxCell>
        <mxCell id="kIR86H_-BO4yGohiQIek-3" value="https://www.draw.io" style="strokeWidth=1;shadow=0;dashed=0;align=center;html=1;shape=mxgraph.mockup.containers.anchor;rSize=0;fontSize=17;fontColor=#666666;align=left;" parent="kIR86H_-BO4yGohiQIek-1" vertex="1">
          <mxGeometry x="130" y="60" width="250" height="26" as="geometry" />
        </mxCell>
        <mxCell id="kIR86H_-BO4yGohiQIek-17" value="BOOKSTORE" style="text;strokeColor=none;fillColor=none;html=1;fontSize=24;fontStyle=1;verticalAlign=middle;align=center;" parent="kIR86H_-BO4yGohiQIek-1" vertex="1">
          <mxGeometry x="375" y="180" width="100" height="40" as="geometry" />
        </mxCell>
        <mxCell id="kIR86H_-BO4yGohiQIek-18" value="" style="rounded=1;whiteSpace=wrap;html=1;" parent="kIR86H_-BO4yGohiQIek-1" vertex="1">
          <mxGeometry x="268" y="320" width="315" height="320" as="geometry" />
        </mxCell>
        <mxCell id="kIR86H_-BO4yGohiQIek-19" value="spooky" style="text;html=1;strokeColor=none;fillColor=none;align=center;verticalAlign=middle;whiteSpace=wrap;rounded=0;" parent="kIR86H_-BO4yGohiQIek-1" vertex="1">
          <mxGeometry x="583" y="670" width="160" height="30" as="geometry" />
        </mxCell>
        <mxCell id="gFa9SqbbfrOCr1QPYL0y-1" value="" style="html=1;shadow=0;dashed=0;fillColor=#F8F9FA;strokeColor=none;fontSize=16;fontColor=#181819;align=left;spacing=15;" parent="kIR86H_-BO4yGohiQIek-1" vertex="1">
          <mxGeometry x="25" y="110" width="800" height="70" as="geometry" />
        </mxCell>
        <mxCell id="gFa9SqbbfrOCr1QPYL0y-2" value="store" style="fillColor=none;strokeColor=none;fontSize=14;fontColor=#181819;align=center;" parent="gFa9SqbbfrOCr1QPYL0y-1" vertex="1">
          <mxGeometry width="70" height="40" relative="1" as="geometry">
            <mxPoint x="188" y="10" as="offset" />
          </mxGeometry>
        </mxCell>
        <mxCell id="gFa9SqbbfrOCr1QPYL0y-3" value="admin" style="fillColor=none;strokeColor=none;fontSize=14;fontColor=#7C7C7D;align=center;" parent="gFa9SqbbfrOCr1QPYL0y-1" vertex="1">
          <mxGeometry width="50" height="40" relative="1" as="geometry">
            <mxPoint x="328" y="10" as="offset" />
          </mxGeometry>
        </mxCell>
        <mxCell id="gFa9SqbbfrOCr1QPYL0y-9" value="home" style="fillColor=none;strokeColor=none;fontSize=14;fontColor=#181819;align=center;" parent="gFa9SqbbfrOCr1QPYL0y-1" vertex="1">
          <mxGeometry x="117" y="10" width="70" height="40" as="geometry" />
        </mxCell>
        <mxCell id="CN915MGw62UKDeEkbPB2-4" value="" style="ellipse;whiteSpace=wrap;html=1;aspect=fixed;" vertex="1" parent="gFa9SqbbfrOCr1QPYL0y-1">
          <mxGeometry x="35" y="5" width="50" height="50" as="geometry" />
        </mxCell>
        <mxCell id="CN915MGw62UKDeEkbPB2-2" value="&lt;font style=&quot;font-size: 12px;&quot;&gt;welcome&lt;/font&gt;" style="text;strokeColor=none;fillColor=none;html=1;fontSize=24;fontStyle=1;verticalAlign=middle;align=center;" vertex="1" parent="kIR86H_-BO4yGohiQIek-1">
          <mxGeometry x="375" y="220" width="100" height="40" as="geometry" />
        </mxCell>
        <mxCell id="CN915MGw62UKDeEkbPB2-1" value="login" style="fillColor=none;strokeColor=none;fontSize=14;fontColor=#7C7C7D;align=center;" vertex="1" parent="1">
          <mxGeometry x="675" y="119" width="50" height="40" as="geometry" />
        </mxCell>
        <mxCell id="CN915MGw62UKDeEkbPB2-3" value="new bk" style="fillColor=none;strokeColor=none;fontSize=14;fontColor=#181819;align=center;" vertex="1" parent="1">
          <mxGeometry x="273" y="120" width="70" height="40" as="geometry" />
        </mxCell>
      </root>
    </mxGraphModel>
  </diagram>
  <diagram name="store" id="WJEfjI1DbNmuqYwlvPIS">
    <mxGraphModel dx="1674" dy="750" grid="1" gridSize="10" guides="1" tooltips="1" connect="1" arrows="1" fold="1" page="1" pageScale="1" pageWidth="850" pageHeight="1100" math="0" shadow="0">
      <root>
        <mxCell id="ROqihnbeWt7V_9q3ESoS-0" />
        <mxCell id="ROqihnbeWt7V_9q3ESoS-1" parent="ROqihnbeWt7V_9q3ESoS-0" />
        <mxCell id="ROqihnbeWt7V_9q3ESoS-2" value="" style="strokeWidth=1;shadow=0;dashed=0;align=center;html=1;shape=mxgraph.mockup.containers.browserWindow;rSize=0;strokeColor=#666666;strokeColor2=#008cff;strokeColor3=#c4c4c4;mainText=,;recursiveResize=0;" vertex="1" parent="ROqihnbeWt7V_9q3ESoS-1">
          <mxGeometry width="850" height="800" as="geometry" />
        </mxCell>
        <mxCell id="ROqihnbeWt7V_9q3ESoS-3" value="Page 1" style="strokeWidth=1;shadow=0;dashed=0;align=center;html=1;shape=mxgraph.mockup.containers.anchor;fontSize=17;fontColor=#666666;align=left;whiteSpace=wrap;" vertex="1" parent="ROqihnbeWt7V_9q3ESoS-2">
          <mxGeometry x="60" y="12" width="110" height="26" as="geometry" />
        </mxCell>
        <mxCell id="ROqihnbeWt7V_9q3ESoS-4" value="https://www.draw.io" style="strokeWidth=1;shadow=0;dashed=0;align=center;html=1;shape=mxgraph.mockup.containers.anchor;rSize=0;fontSize=17;fontColor=#666666;align=left;" vertex="1" parent="ROqihnbeWt7V_9q3ESoS-2">
          <mxGeometry x="130" y="60" width="250" height="26" as="geometry" />
        </mxCell>
        <mxCell id="ROqihnbeWt7V_9q3ESoS-5" value="BOOKSTORE" style="text;strokeColor=none;fillColor=none;html=1;fontSize=24;fontStyle=1;verticalAlign=middle;align=center;" vertex="1" parent="ROqihnbeWt7V_9q3ESoS-2">
          <mxGeometry x="375" y="180" width="100" height="40" as="geometry" />
        </mxCell>
        <mxCell id="ROqihnbeWt7V_9q3ESoS-8" value="" style="html=1;shadow=0;dashed=0;fillColor=#F8F9FA;strokeColor=none;fontSize=16;fontColor=#181819;align=left;spacing=15;" vertex="1" parent="ROqihnbeWt7V_9q3ESoS-2">
          <mxGeometry x="25" y="110" width="800" height="70" as="geometry" />
        </mxCell>
        <mxCell id="ROqihnbeWt7V_9q3ESoS-9" value="store" style="fillColor=none;strokeColor=none;fontSize=14;fontColor=#181819;align=center;" vertex="1" parent="ROqihnbeWt7V_9q3ESoS-8">
          <mxGeometry width="70" height="40" relative="1" as="geometry">
            <mxPoint x="188" y="10" as="offset" />
          </mxGeometry>
        </mxCell>
        <mxCell id="ROqihnbeWt7V_9q3ESoS-10" value="admin" style="fillColor=none;strokeColor=none;fontSize=14;fontColor=#7C7C7D;align=center;" vertex="1" parent="ROqihnbeWt7V_9q3ESoS-8">
          <mxGeometry width="50" height="40" relative="1" as="geometry">
            <mxPoint x="328" y="10" as="offset" />
          </mxGeometry>
        </mxCell>
        <mxCell id="ROqihnbeWt7V_9q3ESoS-11" value="home" style="fillColor=none;strokeColor=none;fontSize=14;fontColor=#181819;align=center;" vertex="1" parent="ROqihnbeWt7V_9q3ESoS-8">
          <mxGeometry x="117" y="10" width="70" height="40" as="geometry" />
        </mxCell>
        <mxCell id="ROqihnbeWt7V_9q3ESoS-12" value="" style="ellipse;whiteSpace=wrap;html=1;aspect=fixed;" vertex="1" parent="ROqihnbeWt7V_9q3ESoS-8">
          <mxGeometry x="35" y="5" width="50" height="50" as="geometry" />
        </mxCell>
        <mxCell id="ROqihnbeWt7V_9q3ESoS-13" value="&lt;font style=&quot;font-size: 12px;&quot;&gt;num of books&lt;/font&gt;" style="text;strokeColor=none;fillColor=none;html=1;fontSize=24;fontStyle=1;verticalAlign=middle;align=center;" vertex="1" parent="ROqihnbeWt7V_9q3ESoS-2">
          <mxGeometry x="375" y="220" width="100" height="40" as="geometry" />
        </mxCell>
        <mxCell id="HIais9SciBU2_Oq1Y9s5-4" value="" style="html=1;shadow=0;dashed=0;shape=mxgraph.bootstrap.rrect;rSize=5;strokeColor=#DFDFDF;html=1;whiteSpace=wrap;fillColor=#FFFFFF;fontColor=#000000;" vertex="1" parent="ROqihnbeWt7V_9q3ESoS-2">
          <mxGeometry x="110" y="310" width="200" height="90" as="geometry" />
        </mxCell>
        <mxCell id="HIais9SciBU2_Oq1Y9s5-5" value="Cras justo odio" style="strokeColor=inherit;fillColor=inherit;gradientColor=inherit;fontColor=inherit;html=1;shadow=0;dashed=0;shape=mxgraph.bootstrap.topButton;rSize=5;perimeter=none;whiteSpace=wrap;resizeWidth=1;align=left;spacing=10;" vertex="1" parent="HIais9SciBU2_Oq1Y9s5-4">
          <mxGeometry width="200" height="30" relative="1" as="geometry" />
        </mxCell>
        <mxCell id="HIais9SciBU2_Oq1Y9s5-6" value="Dapibus ac facilisis in" style="strokeColor=inherit;fillColor=inherit;gradientColor=inherit;fontColor=inherit;html=1;shadow=0;dashed=0;perimeter=none;whiteSpace=wrap;resizeWidth=1;align=left;spacing=10;" vertex="1" parent="HIais9SciBU2_Oq1Y9s5-4">
          <mxGeometry width="200" height="30" relative="1" as="geometry">
            <mxPoint y="30" as="offset" />
          </mxGeometry>
        </mxCell>
        <mxCell id="HIais9SciBU2_Oq1Y9s5-7" value="Vestibulum at eros" style="strokeColor=inherit;fillColor=inherit;gradientColor=inherit;fontColor=inherit;html=1;shadow=0;dashed=0;shape=mxgraph.bootstrap.bottomButton;rSize=5;perimeter=none;whiteSpace=wrap;resizeWidth=1;resizeHeight=0;align=left;spacing=10;" vertex="1" parent="HIais9SciBU2_Oq1Y9s5-4">
          <mxGeometry y="1" width="200" height="30" relative="1" as="geometry">
            <mxPoint y="-30" as="offset" />
          </mxGeometry>
        </mxCell>
        <mxCell id="HIais9SciBU2_Oq1Y9s5-0" value="" style="html=1;shadow=0;dashed=0;shape=mxgraph.bootstrap.rrect;rSize=5;strokeColor=#DFDFDF;html=1;whiteSpace=wrap;fillColor=#FFFFFF;fontColor=#000000;" vertex="1" parent="ROqihnbeWt7V_9q3ESoS-2">
          <mxGeometry x="110" y="400" width="200" height="90" as="geometry" />
        </mxCell>
        <mxCell id="HIais9SciBU2_Oq1Y9s5-1" value="Cras justo odio" style="strokeColor=inherit;fillColor=inherit;gradientColor=inherit;fontColor=inherit;html=1;shadow=0;dashed=0;shape=mxgraph.bootstrap.topButton;rSize=5;perimeter=none;whiteSpace=wrap;resizeWidth=1;align=left;spacing=10;" vertex="1" parent="HIais9SciBU2_Oq1Y9s5-0">
          <mxGeometry width="200" height="30" relative="1" as="geometry" />
        </mxCell>
        <mxCell id="HIais9SciBU2_Oq1Y9s5-2" value="Dapibus ac facilisis in" style="strokeColor=inherit;fillColor=inherit;gradientColor=inherit;fontColor=inherit;html=1;shadow=0;dashed=0;perimeter=none;whiteSpace=wrap;resizeWidth=1;align=left;spacing=10;" vertex="1" parent="HIais9SciBU2_Oq1Y9s5-0">
          <mxGeometry width="200" height="30" relative="1" as="geometry">
            <mxPoint y="30" as="offset" />
          </mxGeometry>
        </mxCell>
        <mxCell id="HIais9SciBU2_Oq1Y9s5-3" value="Vestibulum at eros" style="strokeColor=inherit;fillColor=inherit;gradientColor=inherit;fontColor=inherit;html=1;shadow=0;dashed=0;shape=mxgraph.bootstrap.bottomButton;rSize=5;perimeter=none;whiteSpace=wrap;resizeWidth=1;resizeHeight=0;align=left;spacing=10;" vertex="1" parent="HIais9SciBU2_Oq1Y9s5-0">
          <mxGeometry y="1" width="200" height="30" relative="1" as="geometry">
            <mxPoint y="-30" as="offset" />
          </mxGeometry>
        </mxCell>
        <mxCell id="ROqihnbeWt7V_9q3ESoS-14" value="login" style="fillColor=none;strokeColor=none;fontSize=14;fontColor=#7C7C7D;align=center;" vertex="1" parent="ROqihnbeWt7V_9q3ESoS-1">
          <mxGeometry x="675" y="119" width="50" height="40" as="geometry" />
        </mxCell>
        <mxCell id="ROqihnbeWt7V_9q3ESoS-15" value="new bk" style="fillColor=none;strokeColor=none;fontSize=14;fontColor=#181819;align=center;" vertex="1" parent="ROqihnbeWt7V_9q3ESoS-1">
          <mxGeometry x="273" y="120" width="70" height="40" as="geometry" />
        </mxCell>
      </root>
    </mxGraphModel>
  </diagram>
  <diagram name="new book" id="DhYw90iSRkBd8zs5ipsI">
    <mxGraphModel dx="1674" dy="750" grid="1" gridSize="10" guides="1" tooltips="1" connect="1" arrows="1" fold="1" page="1" pageScale="1" pageWidth="850" pageHeight="1100" math="0" shadow="0">
      <root>
        <mxCell id="CMv0c8m5IZcrcctEZoeC-0" />
        <mxCell id="CMv0c8m5IZcrcctEZoeC-1" parent="CMv0c8m5IZcrcctEZoeC-0" />
        <mxCell id="CMv0c8m5IZcrcctEZoeC-2" value="" style="strokeWidth=1;shadow=0;dashed=0;align=center;html=1;shape=mxgraph.mockup.containers.browserWindow;rSize=0;strokeColor=#666666;strokeColor2=#008cff;strokeColor3=#c4c4c4;mainText=,;recursiveResize=0;" vertex="1" parent="CMv0c8m5IZcrcctEZoeC-1">
          <mxGeometry width="850" height="800" as="geometry" />
        </mxCell>
        <mxCell id="CMv0c8m5IZcrcctEZoeC-3" value="Page 1" style="strokeWidth=1;shadow=0;dashed=0;align=center;html=1;shape=mxgraph.mockup.containers.anchor;fontSize=17;fontColor=#666666;align=left;whiteSpace=wrap;" vertex="1" parent="CMv0c8m5IZcrcctEZoeC-2">
          <mxGeometry x="60" y="12" width="110" height="26" as="geometry" />
        </mxCell>
        <mxCell id="CMv0c8m5IZcrcctEZoeC-4" value="https://www.draw.io" style="strokeWidth=1;shadow=0;dashed=0;align=center;html=1;shape=mxgraph.mockup.containers.anchor;rSize=0;fontSize=17;fontColor=#666666;align=left;" vertex="1" parent="CMv0c8m5IZcrcctEZoeC-2">
          <mxGeometry x="130" y="60" width="250" height="26" as="geometry" />
        </mxCell>
        <mxCell id="CMv0c8m5IZcrcctEZoeC-5" value="NEW BOOK" style="text;strokeColor=none;fillColor=none;html=1;fontSize=24;fontStyle=1;verticalAlign=middle;align=center;" vertex="1" parent="CMv0c8m5IZcrcctEZoeC-2">
          <mxGeometry x="375" y="180" width="100" height="40" as="geometry" />
        </mxCell>
        <mxCell id="CMv0c8m5IZcrcctEZoeC-6" value="" style="html=1;shadow=0;dashed=0;fillColor=#F8F9FA;strokeColor=none;fontSize=16;fontColor=#181819;align=left;spacing=15;" vertex="1" parent="CMv0c8m5IZcrcctEZoeC-2">
          <mxGeometry x="25" y="110" width="800" height="70" as="geometry" />
        </mxCell>
        <mxCell id="CMv0c8m5IZcrcctEZoeC-7" value="store" style="fillColor=none;strokeColor=none;fontSize=14;fontColor=#181819;align=center;" vertex="1" parent="CMv0c8m5IZcrcctEZoeC-6">
          <mxGeometry width="70" height="40" relative="1" as="geometry">
            <mxPoint x="188" y="10" as="offset" />
          </mxGeometry>
        </mxCell>
        <mxCell id="CMv0c8m5IZcrcctEZoeC-8" value="admin" style="fillColor=none;strokeColor=none;fontSize=14;fontColor=#7C7C7D;align=center;" vertex="1" parent="CMv0c8m5IZcrcctEZoeC-6">
          <mxGeometry width="50" height="40" relative="1" as="geometry">
            <mxPoint x="328" y="10" as="offset" />
          </mxGeometry>
        </mxCell>
        <mxCell id="CMv0c8m5IZcrcctEZoeC-9" value="home" style="fillColor=none;strokeColor=none;fontSize=14;fontColor=#181819;align=center;" vertex="1" parent="CMv0c8m5IZcrcctEZoeC-6">
          <mxGeometry x="117" y="10" width="70" height="40" as="geometry" />
        </mxCell>
        <mxCell id="CMv0c8m5IZcrcctEZoeC-10" value="" style="ellipse;whiteSpace=wrap;html=1;aspect=fixed;" vertex="1" parent="CMv0c8m5IZcrcctEZoeC-6">
          <mxGeometry x="35" y="5" width="50" height="50" as="geometry" />
        </mxCell>
        <mxCell id="DcGnV3b0n0JoFEjfs8XY-16" value="input label 1" style="fillColor=none;strokeColor=none;align=left;fontSize=14;" vertex="1" parent="CMv0c8m5IZcrcctEZoeC-2">
          <mxGeometry width="260" height="40" relative="1" as="geometry">
            <mxPoint x="372" y="300" as="offset" />
          </mxGeometry>
        </mxCell>
        <mxCell id="DcGnV3b0n0JoFEjfs8XY-17" value="" style="html=1;shadow=0;dashed=0;shape=mxgraph.bootstrap.rrect;rSize=5;fillColor=none;strokeColor=#999999;align=left;spacing=15;fontSize=14;fontColor=#6C767D;" vertex="1" parent="CMv0c8m5IZcrcctEZoeC-2">
          <mxGeometry width="800" height="30" relative="1" as="geometry">
            <mxPoint x="40" y="340" as="offset" />
          </mxGeometry>
        </mxCell>
        <mxCell id="DcGnV3b0n0JoFEjfs8XY-19" value="input label 2" style="fillColor=none;strokeColor=none;align=left;fontSize=14;" vertex="1" parent="CMv0c8m5IZcrcctEZoeC-2">
          <mxGeometry width="260" height="40" relative="1" as="geometry">
            <mxPoint x="372" y="400" as="offset" />
          </mxGeometry>
        </mxCell>
        <mxCell id="DcGnV3b0n0JoFEjfs8XY-20" value="" style="html=1;shadow=0;dashed=0;shape=mxgraph.bootstrap.rrect;rSize=5;fillColor=none;strokeColor=#999999;align=left;spacing=15;fontSize=14;fontColor=#6C767D;" vertex="1" parent="CMv0c8m5IZcrcctEZoeC-2">
          <mxGeometry width="800" height="30" relative="1" as="geometry">
            <mxPoint x="40" y="440" as="offset" />
          </mxGeometry>
        </mxCell>
        <mxCell id="DcGnV3b0n0JoFEjfs8XY-22" value="submit" style="html=1;shadow=0;dashed=0;shape=mxgraph.bootstrap.rrect;rSize=5;fillColor=#0085FC;strokeColor=none;align=center;fontSize=14;fontColor=#FFFFFF;" vertex="1" parent="CMv0c8m5IZcrcctEZoeC-2">
          <mxGeometry width="70" height="40" relative="1" as="geometry">
            <mxPoint x="295" y="520" as="offset" />
          </mxGeometry>
        </mxCell>
        <mxCell id="DcGnV3b0n0JoFEjfs8XY-23" value="cancel" style="html=1;shadow=0;dashed=0;shape=mxgraph.bootstrap.rrect;rSize=5;fillColor=#0085FC;strokeColor=none;align=center;fontSize=14;fontColor=#FFFFFF;" vertex="1" parent="CMv0c8m5IZcrcctEZoeC-2">
          <mxGeometry x="475" y="520" width="70" height="40" as="geometry" />
        </mxCell>
        <mxCell id="CMv0c8m5IZcrcctEZoeC-20" value="login" style="fillColor=none;strokeColor=none;fontSize=14;fontColor=#7C7C7D;align=center;" vertex="1" parent="CMv0c8m5IZcrcctEZoeC-1">
          <mxGeometry x="675" y="119" width="50" height="40" as="geometry" />
        </mxCell>
        <mxCell id="CMv0c8m5IZcrcctEZoeC-21" value="new bk" style="fillColor=none;strokeColor=none;fontSize=14;fontColor=#181819;align=center;" vertex="1" parent="CMv0c8m5IZcrcctEZoeC-1">
          <mxGeometry x="273" y="120" width="70" height="40" as="geometry" />
        </mxCell>
      </root>
    </mxGraphModel>
  </diagram>
  <diagram name="edit book" id="h4B0f0njvX9I40Duv1mr">
    <mxGraphModel dx="1674" dy="750" grid="1" gridSize="10" guides="1" tooltips="1" connect="1" arrows="1" fold="1" page="1" pageScale="1" pageWidth="850" pageHeight="1100" math="0" shadow="0">
      <root>
        <mxCell id="iSDKY2vUWW4hDEeVIlz5-0" />
        <mxCell id="iSDKY2vUWW4hDEeVIlz5-1" parent="iSDKY2vUWW4hDEeVIlz5-0" />
        <mxCell id="iSDKY2vUWW4hDEeVIlz5-2" value="" style="strokeWidth=1;shadow=0;dashed=0;align=center;html=1;shape=mxgraph.mockup.containers.browserWindow;rSize=0;strokeColor=#666666;strokeColor2=#008cff;strokeColor3=#c4c4c4;mainText=,;recursiveResize=0;" vertex="1" parent="iSDKY2vUWW4hDEeVIlz5-1">
          <mxGeometry width="850" height="800" as="geometry" />
        </mxCell>
        <mxCell id="iSDKY2vUWW4hDEeVIlz5-3" value="Page 1" style="strokeWidth=1;shadow=0;dashed=0;align=center;html=1;shape=mxgraph.mockup.containers.anchor;fontSize=17;fontColor=#666666;align=left;whiteSpace=wrap;" vertex="1" parent="iSDKY2vUWW4hDEeVIlz5-2">
          <mxGeometry x="60" y="12" width="110" height="26" as="geometry" />
        </mxCell>
        <mxCell id="iSDKY2vUWW4hDEeVIlz5-4" value="https://www.draw.io" style="strokeWidth=1;shadow=0;dashed=0;align=center;html=1;shape=mxgraph.mockup.containers.anchor;rSize=0;fontSize=17;fontColor=#666666;align=left;" vertex="1" parent="iSDKY2vUWW4hDEeVIlz5-2">
          <mxGeometry x="130" y="60" width="250" height="26" as="geometry" />
        </mxCell>
        <mxCell id="iSDKY2vUWW4hDEeVIlz5-5" value="EDIT BOOK" style="text;strokeColor=none;fillColor=none;html=1;fontSize=24;fontStyle=1;verticalAlign=middle;align=center;" vertex="1" parent="iSDKY2vUWW4hDEeVIlz5-2">
          <mxGeometry x="375" y="180" width="100" height="40" as="geometry" />
        </mxCell>
        <mxCell id="iSDKY2vUWW4hDEeVIlz5-6" value="" style="html=1;shadow=0;dashed=0;fillColor=#F8F9FA;strokeColor=none;fontSize=16;fontColor=#181819;align=left;spacing=15;" vertex="1" parent="iSDKY2vUWW4hDEeVIlz5-2">
          <mxGeometry x="25" y="110" width="800" height="70" as="geometry" />
        </mxCell>
        <mxCell id="iSDKY2vUWW4hDEeVIlz5-7" value="store" style="fillColor=none;strokeColor=none;fontSize=14;fontColor=#181819;align=center;" vertex="1" parent="iSDKY2vUWW4hDEeVIlz5-6">
          <mxGeometry width="70" height="40" relative="1" as="geometry">
            <mxPoint x="188" y="10" as="offset" />
          </mxGeometry>
        </mxCell>
        <mxCell id="iSDKY2vUWW4hDEeVIlz5-8" value="admin" style="fillColor=none;strokeColor=none;fontSize=14;fontColor=#7C7C7D;align=center;" vertex="1" parent="iSDKY2vUWW4hDEeVIlz5-6">
          <mxGeometry width="50" height="40" relative="1" as="geometry">
            <mxPoint x="328" y="10" as="offset" />
          </mxGeometry>
        </mxCell>
        <mxCell id="iSDKY2vUWW4hDEeVIlz5-9" value="home" style="fillColor=none;strokeColor=none;fontSize=14;fontColor=#181819;align=center;" vertex="1" parent="iSDKY2vUWW4hDEeVIlz5-6">
          <mxGeometry x="117" y="10" width="70" height="40" as="geometry" />
        </mxCell>
        <mxCell id="iSDKY2vUWW4hDEeVIlz5-10" value="" style="ellipse;whiteSpace=wrap;html=1;aspect=fixed;" vertex="1" parent="iSDKY2vUWW4hDEeVIlz5-6">
          <mxGeometry x="35" y="5" width="50" height="50" as="geometry" />
        </mxCell>
        <mxCell id="iSDKY2vUWW4hDEeVIlz5-11" value="input label 1" style="fillColor=none;strokeColor=none;align=left;fontSize=14;" vertex="1" parent="iSDKY2vUWW4hDEeVIlz5-2">
          <mxGeometry width="260" height="40" relative="1" as="geometry">
            <mxPoint x="372" y="300" as="offset" />
          </mxGeometry>
        </mxCell>
        <mxCell id="iSDKY2vUWW4hDEeVIlz5-12" value="" style="html=1;shadow=0;dashed=0;shape=mxgraph.bootstrap.rrect;rSize=5;fillColor=none;strokeColor=#999999;align=left;spacing=15;fontSize=14;fontColor=#6C767D;" vertex="1" parent="iSDKY2vUWW4hDEeVIlz5-2">
          <mxGeometry width="800" height="30" relative="1" as="geometry">
            <mxPoint x="40" y="340" as="offset" />
          </mxGeometry>
        </mxCell>
        <mxCell id="iSDKY2vUWW4hDEeVIlz5-13" value="input label 2" style="fillColor=none;strokeColor=none;align=left;fontSize=14;" vertex="1" parent="iSDKY2vUWW4hDEeVIlz5-2">
          <mxGeometry width="260" height="40" relative="1" as="geometry">
            <mxPoint x="372" y="400" as="offset" />
          </mxGeometry>
        </mxCell>
        <mxCell id="iSDKY2vUWW4hDEeVIlz5-14" value="" style="html=1;shadow=0;dashed=0;shape=mxgraph.bootstrap.rrect;rSize=5;fillColor=none;strokeColor=#999999;align=left;spacing=15;fontSize=14;fontColor=#6C767D;" vertex="1" parent="iSDKY2vUWW4hDEeVIlz5-2">
          <mxGeometry width="800" height="30" relative="1" as="geometry">
            <mxPoint x="40" y="440" as="offset" />
          </mxGeometry>
        </mxCell>
        <mxCell id="iSDKY2vUWW4hDEeVIlz5-15" value="submit" style="html=1;shadow=0;dashed=0;shape=mxgraph.bootstrap.rrect;rSize=5;fillColor=#0085FC;strokeColor=none;align=center;fontSize=14;fontColor=#FFFFFF;" vertex="1" parent="iSDKY2vUWW4hDEeVIlz5-2">
          <mxGeometry width="70" height="40" relative="1" as="geometry">
            <mxPoint x="295" y="520" as="offset" />
          </mxGeometry>
        </mxCell>
        <mxCell id="iSDKY2vUWW4hDEeVIlz5-16" value="cancel" style="html=1;shadow=0;dashed=0;shape=mxgraph.bootstrap.rrect;rSize=5;fillColor=#0085FC;strokeColor=none;align=center;fontSize=14;fontColor=#FFFFFF;" vertex="1" parent="iSDKY2vUWW4hDEeVIlz5-2">
          <mxGeometry x="475" y="520" width="70" height="40" as="geometry" />
        </mxCell>
        <mxCell id="iSDKY2vUWW4hDEeVIlz5-17" value="login" style="fillColor=none;strokeColor=none;fontSize=14;fontColor=#7C7C7D;align=center;" vertex="1" parent="iSDKY2vUWW4hDEeVIlz5-1">
          <mxGeometry x="675" y="119" width="50" height="40" as="geometry" />
        </mxCell>
        <mxCell id="iSDKY2vUWW4hDEeVIlz5-18" value="new bk" style="fillColor=none;strokeColor=none;fontSize=14;fontColor=#181819;align=center;" vertex="1" parent="iSDKY2vUWW4hDEeVIlz5-1">
          <mxGeometry x="273" y="120" width="70" height="40" as="geometry" />
        </mxCell>
      </root>
    </mxGraphModel>
  </diagram>
  <diagram name="admin/login" id="kycFs3ZhLLFzVcj5bnWC">
    <mxGraphModel dx="1674" dy="750" grid="1" gridSize="10" guides="1" tooltips="1" connect="1" arrows="1" fold="1" page="1" pageScale="1" pageWidth="850" pageHeight="1100" math="0" shadow="0">
      <root>
        <mxCell id="gg2hKyfPxLGeEocDrnR5-0" />
        <mxCell id="gg2hKyfPxLGeEocDrnR5-1" parent="gg2hKyfPxLGeEocDrnR5-0" />
        <mxCell id="gg2hKyfPxLGeEocDrnR5-2" value="" style="strokeWidth=1;shadow=0;dashed=0;align=center;html=1;shape=mxgraph.mockup.containers.browserWindow;rSize=0;strokeColor=#666666;strokeColor2=#008cff;strokeColor3=#c4c4c4;mainText=,;recursiveResize=0;" vertex="1" parent="gg2hKyfPxLGeEocDrnR5-1">
          <mxGeometry width="850" height="800" as="geometry" />
        </mxCell>
        <mxCell id="gg2hKyfPxLGeEocDrnR5-3" value="Page 1" style="strokeWidth=1;shadow=0;dashed=0;align=center;html=1;shape=mxgraph.mockup.containers.anchor;fontSize=17;fontColor=#666666;align=left;whiteSpace=wrap;" vertex="1" parent="gg2hKyfPxLGeEocDrnR5-2">
          <mxGeometry x="60" y="12" width="110" height="26" as="geometry" />
        </mxCell>
        <mxCell id="gg2hKyfPxLGeEocDrnR5-4" value="https://www.draw.io" style="strokeWidth=1;shadow=0;dashed=0;align=center;html=1;shape=mxgraph.mockup.containers.anchor;rSize=0;fontSize=17;fontColor=#666666;align=left;" vertex="1" parent="gg2hKyfPxLGeEocDrnR5-2">
          <mxGeometry x="130" y="60" width="250" height="26" as="geometry" />
        </mxCell>
        <mxCell id="gg2hKyfPxLGeEocDrnR5-5" value="DJANGO" style="text;strokeColor=none;fillColor=none;html=1;fontSize=24;fontStyle=1;verticalAlign=middle;align=center;" vertex="1" parent="gg2hKyfPxLGeEocDrnR5-2">
          <mxGeometry x="375" y="180" width="100" height="40" as="geometry" />
        </mxCell>
        <mxCell id="gg2hKyfPxLGeEocDrnR5-6" value="" style="html=1;shadow=0;dashed=0;fillColor=#F8F9FA;strokeColor=none;fontSize=16;fontColor=#181819;align=left;spacing=15;" vertex="1" parent="gg2hKyfPxLGeEocDrnR5-2">
          <mxGeometry x="25" y="110" width="800" height="70" as="geometry" />
        </mxCell>
        <mxCell id="gg2hKyfPxLGeEocDrnR5-7" value="store" style="fillColor=none;strokeColor=none;fontSize=14;fontColor=#181819;align=center;" vertex="1" parent="gg2hKyfPxLGeEocDrnR5-6">
          <mxGeometry width="70" height="40" relative="1" as="geometry">
            <mxPoint x="188" y="10" as="offset" />
          </mxGeometry>
        </mxCell>
        <mxCell id="gg2hKyfPxLGeEocDrnR5-8" value="admin" style="fillColor=none;strokeColor=none;fontSize=14;fontColor=#7C7C7D;align=center;" vertex="1" parent="gg2hKyfPxLGeEocDrnR5-6">
          <mxGeometry width="50" height="40" relative="1" as="geometry">
            <mxPoint x="328" y="10" as="offset" />
          </mxGeometry>
        </mxCell>
        <mxCell id="gg2hKyfPxLGeEocDrnR5-9" value="home" style="fillColor=none;strokeColor=none;fontSize=14;fontColor=#181819;align=center;" vertex="1" parent="gg2hKyfPxLGeEocDrnR5-6">
          <mxGeometry x="117" y="10" width="70" height="40" as="geometry" />
        </mxCell>
        <mxCell id="gg2hKyfPxLGeEocDrnR5-10" value="" style="ellipse;whiteSpace=wrap;html=1;aspect=fixed;" vertex="1" parent="gg2hKyfPxLGeEocDrnR5-6">
          <mxGeometry x="35" y="5" width="50" height="50" as="geometry" />
        </mxCell>
        <mxCell id="aWr1H5tCmY7iq4Gvdb5Q-0" value="&lt;font style=&quot;font-size: 24px;&quot;&gt;django standard admin&lt;/font&gt;" style="text;html=1;strokeColor=none;fillColor=none;align=center;verticalAlign=middle;whiteSpace=wrap;rounded=0;" vertex="1" parent="gg2hKyfPxLGeEocDrnR5-2">
          <mxGeometry x="230" y="360" width="390" height="30" as="geometry" />
        </mxCell>
        <mxCell id="gg2hKyfPxLGeEocDrnR5-17" value="login" style="fillColor=none;strokeColor=none;fontSize=14;fontColor=#7C7C7D;align=center;" vertex="1" parent="gg2hKyfPxLGeEocDrnR5-1">
          <mxGeometry x="675" y="119" width="50" height="40" as="geometry" />
        </mxCell>
        <mxCell id="gg2hKyfPxLGeEocDrnR5-18" value="new bk" style="fillColor=none;strokeColor=none;fontSize=14;fontColor=#181819;align=center;" vertex="1" parent="gg2hKyfPxLGeEocDrnR5-1">
          <mxGeometry x="273" y="120" width="70" height="40" as="geometry" />
        </mxCell>
      </root>
    </mxGraphModel>
  </diagram>
</mxfile>
